<?xml version="1.0" encoding="utf-8"?>
<!-- Generator: Adobe Illustrator 15.0.2, SVG Export Plug-In . SVG Version: 6.00 Build 0)  -->
<!DOCTYPE svg PUBLIC "-//W3C//DTD SVG 1.1//EN" "http://www.w3.org/Graphics/SVG/1.1/DTD/svg11.dtd">
<svg version="1.1" id="Layer_1" xmlns="http://www.w3.org/2000/svg" xmlns:xlink="http://www.w3.org/1999/xlink" x="0px" y="0px"
	 width="100px" height="100px" viewBox="0 0 100 100" enable-background="new 0 0 100 100" xml:space="preserve">
<g id="Captions">
</g>
<g id="Your_Icon">
	<path fill="#B7C22C" d="M76.088,62.292V10.01c0-5.333-12.969-8.122-25.779-8.122s-25.78,2.789-25.78,8.122v52.282
		c0,1.399,0.902,2.624,2.455,3.67c-0.065,0.322-0.273,0.57-0.447,0.722C24.854,67.785,24,69.059,24,70.466
		c0,2.931,3.92,5.091,9.573,6.444v18.646c0,1.897,1.544,3.442,3.443,3.442s3.442-1.545,3.442-3.442V78.081
		c2.985,0.336,6.157,0.507,9.32,0.507c3.41,0,6.83-0.199,10.015-0.591v17.562c0,1.896,1.545,3.441,3.441,3.441
		c1.899,0,3.443-1.545,3.443-3.441v-18.82c5.277-1.361,8.879-3.465,8.879-6.272c0-1.129-0.552-2.175-1.641-3.112l0.014-0.021
		l-0.402-0.294l-0.004,0.005c-0.176-0.159-0.379-0.413-0.428-0.743C74.979,65.186,76.088,63.848,76.088,62.292z M50.309,4.712
		c14.852,0,22.955,3.5,22.955,5.298c0,1.798-8.104,5.297-22.955,5.297s-22.953-3.499-22.953-5.297
		C27.356,8.212,35.457,4.712,50.309,4.712z M37.635,95.559c0,0.34-0.277,0.616-0.618,0.616c-0.341,0-0.618-0.276-0.618-0.616V77.495
		c0.406,0.071,0.818,0.141,1.236,0.206V95.559z M63.855,95.559c0,0.34-0.278,0.616-0.619,0.616c-0.342,0-0.617-0.276-0.617-0.616
		V77.591c0.419-0.071,0.83-0.146,1.236-0.224V95.559z M72.073,69.492c0.423,0.363,0.659,0.711,0.659,0.974
		c0,1.798-8.103,5.297-22.954,5.297s-22.954-3.499-22.954-5.297c0-0.317,0.341-0.748,0.927-1.188
		c0.563-0.331,1.323-1.024,1.754-1.992c4.941,2.064,12.899,3.129,20.803,3.129c7.596,0,15.246-0.98,20.216-2.893
		C70.879,68.419,71.521,69.098,72.073,69.492z M50.309,67.589c-14.852,0-22.953-3.5-22.953-5.297V13.923
		c4.511,2.775,13.771,4.209,22.953,4.209s18.443-1.434,22.955-4.209v0.514c-0.009,0.061-0.02,0.121-0.02,0.184
		c0,0.814-2.057,2.495-7.723,3.79c-0.762,0.173-1.236,0.931-1.063,1.691c0.149,0.655,0.731,1.099,1.377,1.099
		c0.104,0,0.21-0.012,0.315-0.036c2.449-0.56,5.146-1.398,7.111-2.607v0.192c-0.008,0.061-0.019,0.121-0.019,0.184
		c0,0.814-2.058,2.496-7.724,3.79c-0.761,0.174-1.235,0.931-1.062,1.692c0.15,0.654,0.732,1.098,1.377,1.098
		c0.104,0,0.21-0.012,0.314-0.036c2.449-0.56,5.147-1.397,7.112-2.606v0.075c-0.008,0.062-0.019,0.121-0.019,0.185
		c0,0.813-2.057,2.494-7.723,3.789c-0.762,0.174-1.236,0.932-1.063,1.691c0.149,0.654,0.731,1.099,1.377,1.099
		c0.104,0,0.21-0.012,0.315-0.036c2.449-0.56,5.146-1.398,7.111-2.607v0.192c-0.008,0.062-0.019,0.121-0.019,0.185
		c0,0.814-2.058,2.494-7.724,3.789c-0.761,0.174-1.235,0.932-1.062,1.691c0.15,0.656,0.732,1.099,1.377,1.099
		c0.104,0,0.21-0.011,0.314-0.036c2.449-0.56,5.147-1.397,7.112-2.607v0.231c-0.008,0.062-0.019,0.121-0.019,0.185
		c0,0.814-2.057,2.494-7.723,3.789c-0.762,0.174-1.236,0.932-1.063,1.691c0.149,0.655,0.731,1.099,1.377,1.099
		c0.104,0,0.21-0.012,0.315-0.036c2.448-0.56,5.146-1.398,7.111-2.607v0.193c-0.008,0.061-0.019,0.121-0.019,0.184
		c0,0.814-2.058,2.495-7.724,3.79c-0.761,0.173-1.235,0.931-1.062,1.691c0.15,0.655,0.732,1.099,1.377,1.099
		c0.104,0,0.21-0.012,0.314-0.036c2.449-0.561,5.147-1.398,7.112-2.607v0.075c-0.008,0.062-0.019,0.121-0.019,0.185
		c0,0.814-2.057,2.495-7.723,3.79c-0.762,0.174-1.236,0.932-1.063,1.691c0.149,0.654,0.731,1.098,1.377,1.098
		c0.104,0,0.21-0.011,0.315-0.035c2.448-0.56,5.146-1.398,7.111-2.607v0.192c-0.008,0.062-0.02,0.121-0.02,0.185
		c0,0.813-2.057,2.494-7.723,3.789c-0.761,0.174-1.236,0.932-1.062,1.691c0.15,0.654,0.732,1.1,1.377,1.1
		c0.104,0,0.21-0.014,0.314-0.037c2.449-0.561,5.147-1.398,7.112-2.607v0.147c-0.008,0.062-0.019,0.121-0.019,0.185
		c0,0.813-2.057,2.494-7.723,3.789c-0.762,0.174-1.236,0.932-1.063,1.691c0.149,0.654,0.731,1.098,1.377,1.098
		c0.104,0,0.21-0.011,0.315-0.035c2.448-0.561,5.146-1.397,7.111-2.606v0.192c-0.008,0.062-0.02,0.121-0.02,0.185
		c0,0.813-2.057,2.495-7.723,3.789c-0.761,0.174-1.236,0.931-1.062,1.69c0.15,0.655,0.732,1.1,1.377,1.1
		c0.104,0,0.21-0.012,0.314-0.036c2.449-0.56,5.147-1.397,7.112-2.606v0.075c-0.008,0.062-0.019,0.121-0.019,0.185
		c0,0.813-2.058,2.496-7.724,3.789c-0.761,0.175-1.235,0.932-1.062,1.691c0.149,0.655,0.731,1.1,1.377,1.1
		c0.104,0,0.21-0.013,0.315-0.037c2.448-0.56,5.146-1.397,7.111-2.606v0.964C73.264,64.089,65.16,67.589,50.309,67.589z"/>
</g>
</svg>
