<?xml version="1.0" encoding="utf-8"?>
<!-- Generator: Adobe Illustrator 15.0.2, SVG Export Plug-In . SVG Version: 6.00 Build 0)  -->
<!DOCTYPE svg PUBLIC "-//W3C//DTD SVG 1.1//EN" "http://www.w3.org/Graphics/SVG/1.1/DTD/svg11.dtd">
<svg version="1.1" id="Download" xmlns="http://www.w3.org/2000/svg" xmlns:xlink="http://www.w3.org/1999/xlink" x="0px" y="0px"
	 width="100px" height="100px" viewBox="0 0 100 100" enable-background="new 0 0 100 100" xml:space="preserve">
<path id="Arrow" fill="#FFFFFF" d="M52.669,99.454C51.83,99.814,50.927,100,49.961,100s-1.855-0.186-2.667-0.546
	c-0.916-0.467-1.704-1.015-2.363-1.638L22.06,74.449c-0.611-0.623-1.119-1.403-1.524-2.337C20.178,71.229,20,70.281,20,69.268
	c0-1.01,0.178-1.945,0.535-2.804c0.354-0.856,0.863-1.623,1.524-2.296c0.762-0.729,1.549-1.275,2.363-1.637
	c0.812-0.364,1.701-0.545,2.668-0.545c1.017,0,1.931,0.181,2.744,0.545c0.915,0.416,1.701,0.96,2.364,1.637l10.673,10.825V37.245
	c0-0.986,0.176-1.908,0.533-2.766c0.354-0.856,0.864-1.636,1.525-2.336c0.659-0.702,1.447-1.262,2.363-1.676
	C48.105,30.157,48.995,30,49.961,30s1.855,0.157,2.67,0.468c0.915,0.414,1.701,0.974,2.363,1.676c0.66,0.7,1.183,1.479,1.562,2.336
	c0.383,0.857,0.572,1.779,0.572,2.766v37.748l10.598-10.825c0.659-0.677,1.448-1.221,2.363-1.637
	c0.863-0.364,1.779-0.545,2.743-0.545c0.965,0,1.854,0.181,2.669,0.545c0.864,0.36,1.65,0.907,2.365,1.637
	c0.656,0.673,1.179,1.438,1.562,2.296C79.809,67.321,80,68.258,80,69.268c0,1.015-0.18,1.961-0.535,2.846
	c-0.457,0.934-0.99,1.714-1.598,2.337L54.994,97.816C54.281,98.544,53.508,99.09,52.669,99.454z"/>
<path id="Cloud" fill="#FFFFFF" d="M87.016,31.02c-1.181-4.091-4.486-7.272-8.649-8.285c0.049-0.434,0.077-0.875,0.077-1.322
	c0-6.603-5.354-11.955-11.959-11.955c-1.373,0-2.687,0.241-3.914,0.668c-3.799-5.655-10.252-9.375-17.579-9.375
	c-10.978,0-20.002,8.355-21.063,19.053c-0.036-0.001-0.071-0.005-0.105-0.005c-6.458,0-11.707,5.12-11.938,11.52
	c-4.14,1.35-7.134,5.12-7.134,9.709c0,5.711,4.63,10.223,10.344,10.223h23.278V37.245c0-1.584,0.296-3.097,0.88-4.497
	c0.559-1.35,1.37-2.597,2.408-3.695c1.056-1.124,2.331-2.03,3.781-2.686l0.245-0.102c2.65-1.015,5.89-1.016,8.549-0.002l0.252,0.105
	c1.441,0.652,2.714,1.557,3.779,2.687c1.01,1.068,1.819,2.282,2.404,3.604c0.635,1.419,0.958,2.967,0.958,4.586V51.25h23.278
	c5.712,0,10.343-4.512,10.343-10.223C95.25,36.038,91.717,31.994,87.016,31.02z"/>
</svg>
