<?xml version="1.0" encoding="utf-8"?>
<!-- Generator: Adobe Illustrator 15.0.2, SVG Export Plug-In . SVG Version: 6.00 Build 0)  -->
<!DOCTYPE svg PUBLIC "-//W3C//DTD SVG 1.1//EN" "http://www.w3.org/Graphics/SVG/1.1/DTD/svg11.dtd">
<svg version="1.1" xmlns="http://www.w3.org/2000/svg" xmlns:xlink="http://www.w3.org/1999/xlink" x="0px" y="0px" width="110px"
	 height="110px" viewBox="0 0 110 110" enable-background="new 0 0 110 110" xml:space="preserve">
<g id="Layer_1">
	<g>
		<g>
			<path fill="#FFFFFF" d="M89,104.481c0,1.943-1.575,3.519-3.519,3.519H22.519c-1.943,0-3.519-1.575-3.519-3.519V5.519
				C19,3.575,20.575,2,22.519,2h62.963C87.425,2,89,3.575,89,5.519V104.481z"/>
			<path fill="#2A3F42" d="M92,104.264c0,3.168-2.568,5.736-5.736,5.736H22.736c-3.168,0-5.736-2.568-5.736-5.736V5.736
				C17,2.568,19.568,0,22.736,0h63.527C89.432,0,92,2.568,92,5.736V104.264z M88,5.301C88,4.583,87.417,4,86.699,4H23.301
				C22.583,4,22,4.583,22,5.301v98.398c0,0.718,0.583,1.301,1.301,1.301h63.398c0.718,0,1.301-0.583,1.301-1.301V5.301z"/>
		</g>
		<g>
			<path fill="#FFFFFF" d="M81,23.481C81,25.425,79.425,27,77.481,27H31.519C29.575,27,28,25.425,28,23.481V12.519
				C28,10.575,29.575,9,31.519,9h45.963C79.425,9,81,10.575,81,12.519V23.481z"/>
			<path fill="#2A3F42" d="M83,23.264C83,26.432,80.432,29,77.264,29H31.736C28.568,29,26,26.432,26,23.264V12.736
				C26,9.568,28.568,7,31.736,7h45.527C80.432,7,83,9.568,83,12.736V23.264z M78,12.301C78,11.583,77.417,11,76.699,11H31.301
				C30.583,11,30,11.583,30,12.301v10.398C30,23.417,30.583,24,31.301,24h45.398C77.417,24,78,23.417,78,22.699V12.301z"/>
		</g>
		<g>
			<circle fill="#FFFFFF" cx="55.115" cy="63.406" r="26.391"/>
			<path fill="#2A3F42" d="M55.115,92.016c-3.861,0-7.608-0.757-11.137-2.249c-3.407-1.441-6.466-3.504-9.093-6.131
				c-2.627-2.626-4.689-5.686-6.13-9.093c-1.492-3.528-2.249-7.275-2.249-11.137s0.757-7.607,2.249-11.137
				c1.441-3.406,3.503-6.466,6.13-9.093c2.626-2.626,5.686-4.688,9.093-6.13c3.528-1.492,7.275-2.249,11.137-2.249
				s7.608,0.757,11.137,2.249c3.406,1.441,6.466,3.504,9.093,6.13c2.627,2.627,4.689,5.687,6.13,9.093
				c1.492,3.529,2.249,7.275,2.249,11.137s-0.757,7.608-2.249,11.137c-1.44,3.407-3.503,6.467-6.13,9.093
				c-2.627,2.627-5.687,4.689-9.093,6.131C62.724,91.259,58.977,92.016,55.115,92.016z M55.115,39.233
				c-13.329,0-24.173,10.844-24.173,24.173S41.786,87.58,55.115,87.58s24.173-10.845,24.173-24.174S68.444,39.233,55.115,39.233z"/>
		</g>
		<g>
			<path fill="#2A3F42" d="M56.219,59.856c0.808,1.213,0.481,2.851-0.732,3.659l0,0c-1.213,0.809-2.852,0.481-3.66-0.731
				L40.116,45.217c-0.809-1.212-0.481-2.851,0.732-3.659l0,0c1.212-0.809,2.851-0.481,3.66,0.731L56.219,59.856z"/>
			<path fill="#2A3F42" d="M54.026,64.514c-1.072,0-2.066-0.531-2.66-1.422L39.655,45.524c-0.977-1.465-0.58-3.451,0.886-4.429
				c0.527-0.351,1.138-0.536,1.769-0.536c1.072,0,2.066,0.531,2.66,1.422l11.711,17.567c0.977,1.465,0.579,3.451-0.886,4.429
				C55.268,64.328,54.656,64.514,54.026,64.514z M42.31,41.668c-0.411,0-0.81,0.121-1.154,0.351
				c-0.957,0.638-1.216,1.935-0.579,2.892l11.711,17.566c0.388,0.582,1.037,0.929,1.737,0.929c0.411,0,0.81-0.121,1.154-0.351
				c0.957-0.638,1.216-1.935,0.578-2.891L44.046,42.597C43.659,42.016,43.01,41.668,42.31,41.668z"/>
		</g>
		<g>
			<circle fill="#FFFFFF" cx="32.201" cy="97.121" r="7.038"/>
			<path fill="#2A3F42" d="M32.201,106.376c-5.104,0-9.255-4.152-9.255-9.255c0-5.104,4.152-9.256,9.255-9.256
				s9.255,4.152,9.255,9.256C41.457,102.224,37.305,106.376,32.201,106.376z M32.201,92.301c-2.658,0-4.82,2.162-4.82,4.82
				c0,2.657,2.163,4.819,4.82,4.819s4.82-2.162,4.82-4.819C37.021,94.463,34.859,92.301,32.201,92.301z"/>
		</g>
		<g>
			<circle fill="#B7C22C" cx="32.201" cy="97.121" r="3.959"/>
			<path fill="#2A3F42" d="M32.201,102.188c-2.794,0-5.068-2.273-5.068-5.067c0-2.795,2.273-5.068,5.068-5.068
				c2.794,0,5.067,2.273,5.067,5.068C37.269,99.915,34.995,102.188,32.201,102.188z M32.201,94.271c-1.571,0-2.85,1.278-2.85,2.851
				c0,1.57,1.279,2.85,2.85,2.85s2.85-1.279,2.85-2.85C35.051,95.549,33.772,94.271,32.201,94.271z"/>
		</g>
		<g>
			<circle fill="#FFFFFF" cx="78.826" cy="97.121" r="7.038"/>
			<path fill="#2A3F42" d="M78.825,106.376c-5.104,0-9.255-4.152-9.255-9.255c0-5.104,4.151-9.256,9.255-9.256
				s9.256,4.152,9.256,9.256C88.081,102.224,83.929,106.376,78.825,106.376z M78.825,92.301c-2.657,0-4.819,2.162-4.819,4.82
				c0,2.657,2.162,4.819,4.819,4.819c2.658,0,4.82-2.162,4.82-4.819C83.646,94.463,81.483,92.301,78.825,92.301z"/>
		</g>
		<g>
			<circle fill="#22A8B5" cx="78.826" cy="97.121" r="3.958"/>
			<path fill="#2A3F42" d="M78.825,102.188c-2.794,0-5.067-2.273-5.067-5.067c0-2.795,2.273-5.068,5.067-5.068
				s5.067,2.273,5.067,5.068C83.893,99.915,81.619,102.188,78.825,102.188z M78.825,94.271c-1.571,0-2.85,1.278-2.85,2.851
				c0,1.57,1.278,2.85,2.85,2.85s2.85-1.279,2.85-2.85C81.675,95.549,80.396,94.271,78.825,94.271z"/>
		</g>
		<g>
			<g>
				<path fill="#B7C22C" d="M46.982,21.264h-1.265v2.406h-2.151v-2.406h-4.426v-1.92l4.11-6.785h2.467v6.985h1.265V21.264z
					 M43.566,19.544v-4.815l-2.791,4.815H43.566z"/>
			</g>
			<g>
				<path fill="#B7C22C" d="M48.494,21.364h2.336v2.306h-2.336V21.364z"/>
			</g>
			<g>
				<path fill="#B7C22C" d="M52.904,21.472c0.313-0.745,1.054-1.534,2.221-2.367c1.013-0.725,1.668-1.243,1.966-1.558
					c0.457-0.488,0.687-1.022,0.687-1.604c0-0.473-0.132-0.866-0.394-1.18c-0.263-0.313-0.638-0.47-1.126-0.47
					c-0.668,0-1.123,0.249-1.365,0.747c-0.139,0.288-0.221,0.746-0.247,1.373h-2.136c0.036-0.951,0.208-1.72,0.517-2.306
					c0.586-1.115,1.628-1.673,3.126-1.673c1.183,0,2.125,0.327,2.825,0.982c0.7,0.656,1.05,1.523,1.05,2.603
					c0,0.828-0.247,1.562-0.741,2.205c-0.325,0.427-0.857,0.902-1.6,1.427l-0.881,0.625c-0.551,0.391-0.928,0.673-1.131,0.848
					s-0.374,0.378-0.513,0.609h4.881v1.936h-7.657C52.408,22.867,52.58,22.135,52.904,21.472z"/>
			</g>
			<g>
				<path fill="#B7C22C" d="M71.267,15.265h2.359l-3.035,8.405h-2.317l-3.014-8.405h2.468l1.75,6.199L71.267,15.265z"/>
			</g>
		</g>
	</g>
</g>
<g id="Layer_2" display="none">
	<g display="inline">
		<path fill="#B7C22C" stroke="#B7C22C" stroke-width="20" stroke-miterlimit="10" d="M961,1217.686
			c0,15.638-17.908,28.314-40,28.314h-49c-22.092,0-40-12.677-40-28.314V656.34c0-15.638,17.908-28.34,40-28.34h49
			c22.092,0,40,12.703,40,28.34V1217.686z"/>
		<path fill="#22A8B5" stroke="#22A8B5" stroke-width="20" stroke-miterlimit="10" d="M1182,1217.686
			c0,15.638-17.908,28.314-40,28.314h-49c-22.092,0-40-12.677-40-28.314V656.34c0-15.638,17.908-28.34,40-28.34h49
			c22.092,0,40,12.703,40,28.34V1217.686z"/>
		<path fill="none" stroke="#B7C22C" stroke-width="20" stroke-miterlimit="10" d="M894.863,1245.868
			c-72.008,126.013-45.668,179.036-117.012,228.022C734,1504,693,1511,648.838,1506.895c-83.86-7.796-114.01,0-126.012-84.009
			s-9.326-157.081-9.326-157.081"/>
		<path fill="#B7C22C" stroke="#B7C22C" stroke-width="20" stroke-miterlimit="10" d="M908,631c0,6.627-5.373,12-12,12l0,0
			c-6.627,0-12-5.373-12-12V184c0-6.627,5.373-12,12-12l0,0c6.627,0,12,5.373,12,12V631z"/>
		<path fill="#22A8B5" stroke="#22A8B5" stroke-width="20" stroke-miterlimit="10" d="M1129,631c0,6.627-5.373,12-12,12l0,0
			c-6.627,0-12-5.373-12-12V184c0-6.627,5.373-12,12-12l0,0c6.627,0,12,5.373,12,12V631z"/>
		<path fill="none" stroke="#22A8B5" stroke-width="20" stroke-miterlimit="10" d="M1107.885,1248.869
			c0,0,18.001,246.023-141.015,321.031S354,1623,270.801,1602.904C184.236,1581.996,27,1462,1,1423
			c-25.458-38.188-21.229-147.129-21.229-147.129"/>
	</g>
</g>
</svg>
