<?xml version="1.0" encoding="utf-8"?>
<!-- Generator: Adobe Illustrator 15.0.2, SVG Export Plug-In . SVG Version: 6.00 Build 0)  -->
<!DOCTYPE svg PUBLIC "-//W3C//DTD SVG 1.1//EN" "http://www.w3.org/Graphics/SVG/1.1/DTD/svg11.dtd">
<svg version="1.1" id="Your_Icon" xmlns="http://www.w3.org/2000/svg" xmlns:xlink="http://www.w3.org/1999/xlink" x="0px" y="0px"
	 width="100px" height="100px" viewBox="0 0 100 100" enable-background="new 0 0 100 100" xml:space="preserve">
<path fill="#2A3F42" d="M99.575,22.368c0-0.005,0-0.011,0-0.016c0-0.008,0-0.016,0-0.025c0-0.035-0.003-0.07-0.005-0.105
	c-0.002-0.033-0.002-0.067-0.004-0.1c-0.004-0.04-0.008-0.08-0.012-0.12c-0.005-0.035-0.008-0.071-0.013-0.105
	c-0.005-0.038-0.012-0.076-0.019-0.113c-0.008-0.036-0.013-0.073-0.021-0.109c-0.007-0.036-0.017-0.071-0.024-0.106
	c-0.01-0.037-0.019-0.075-0.028-0.112c-0.011-0.034-0.021-0.067-0.031-0.101c-0.012-0.038-0.022-0.075-0.036-0.112
	c-0.011-0.032-0.023-0.064-0.035-0.096c-0.015-0.037-0.029-0.075-0.046-0.111c-0.013-0.031-0.026-0.061-0.041-0.091
	c-0.017-0.037-0.034-0.074-0.052-0.11c-0.016-0.029-0.031-0.058-0.046-0.087c-0.021-0.036-0.039-0.072-0.062-0.107
	c-0.016-0.028-0.033-0.056-0.051-0.083c-0.021-0.035-0.044-0.07-0.066-0.104c-0.019-0.027-0.039-0.053-0.058-0.079
	c-0.024-0.034-0.049-0.067-0.073-0.1c-0.021-0.026-0.041-0.051-0.062-0.076c-0.025-0.032-0.053-0.064-0.08-0.095
	c-0.021-0.024-0.044-0.048-0.066-0.072c-0.028-0.03-0.058-0.06-0.086-0.089c-0.024-0.023-0.049-0.046-0.072-0.068
	c-0.03-0.028-0.062-0.056-0.092-0.083c-0.026-0.022-0.053-0.043-0.078-0.064c-0.032-0.026-0.064-0.051-0.098-0.076
	c-0.027-0.02-0.055-0.04-0.083-0.059c-0.034-0.024-0.067-0.048-0.103-0.07c-0.029-0.019-0.059-0.036-0.088-0.054
	c-0.021-0.013-0.041-0.027-0.063-0.04c-0.015-0.009-0.03-0.016-0.045-0.024c-0.012-0.007-0.024-0.014-0.036-0.021l-10.994-5.966
	c-0.008-0.005-0.017-0.01-0.024-0.014L68.593,3.008c-1.051-0.601-2.343-0.597-3.39,0.011l-8.837,5.124
	c-0.037,0.019-0.073,0.039-0.109,0.06L38.191,18.534c-0.04,0.021-0.08,0.042-0.119,0.065L20.001,28.934
	c-0.038,0.02-0.077,0.041-0.115,0.062L1.825,39.324c-0.051,0.026-0.101,0.052-0.151,0.081c-1.046,0.606-1.692,1.724-1.694,2.934
	l-0.029,16.345c-0.002,1.231,0.661,2.366,1.735,2.969L12.6,67.78v9.905c0,1.875,1.521,3.396,3.397,3.396s3.397-1.521,3.397-3.396
	v-6.093l11.603,6.513c0.517,0.291,1.09,0.436,1.663,0.436c0.593,0,1.187-0.155,1.716-0.465c0.065-0.038,0.128-0.078,0.19-0.12
	l7.135-4.09v20.737c0,1.877,1.521,3.397,3.397,3.397s3.397-1.521,3.397-3.397V69.97l4.041-2.315
	c0.233-0.133,0.446-0.292,0.636-0.471l0.251-0.144v20.958c0,1.876,1.521,3.396,3.397,3.396c1.875,0,3.396-1.521,3.396-3.396V63.152
	l4.928-2.818v20.839c0,1.876,1.521,3.397,3.397,3.397c1.877,0,3.397-1.521,3.397-3.397V56.389l4.929-2.859v20.976
	c0,1.876,1.521,3.397,3.397,3.397c1.875,0,3.396-1.521,3.396-3.397V49.681l4.928-2.819v20.903c0,1.875,1.521,3.396,3.396,3.396
	c1.878,0,3.398-1.521,3.398-3.396V42.975l2.482-1.42c1.058-0.605,1.711-1.731,1.711-2.95L99.575,22.368z M23.147,34.958
	c0.038-0.02,0.076-0.041,0.114-0.063l18.066-10.331c0.04-0.021,0.08-0.042,0.119-0.065l18.059-10.327
	c0.05-0.025,0.097-0.052,0.146-0.08l7.269-4.215l16.396,9.372c0.052,0.031,0.104,0.061,0.156,0.09l5.739,3.114L32.626,54.977
	l-4.562-2.526l-4.783-2.654L11.41,43.018l-1.179-0.674L23.147,34.958z M6.765,48.19l1.287,0.735l11.835,6.765
	c0.013,0.008,0.027,0.015,0.04,0.021l4.947,2.739l4.39,2.436v8.454L6.75,56.702L6.765,48.19z M48.52,62.125l-1.794,1.027
	c-0.699-1.062-1.67-2.145-3.02-3.142c-1.509-1.114-3.637-0.793-4.75,0.716c-1.114,1.51-0.793,3.637,0.716,4.75
	c0.48,0.355,0.846,0.721,1.126,1.073l-4.74,2.718V60.84l56.725-32.602l0.002,6.965c-0.588-0.694-1.309-1.381-2.188-2.031
	c-1.51-1.114-3.638-0.793-4.752,0.716c-1.113,1.51-0.794,3.637,0.717,4.751c0.43,0.317,0.769,0.644,1.035,0.963l-5.796,3.315
	c-0.692-1.017-1.637-2.051-2.928-3.004c-1.51-1.114-3.636-0.793-4.751,0.716c-1.114,1.51-0.793,3.637,0.717,4.751
	c0.402,0.297,0.725,0.601,0.983,0.9l-5.729,3.324c-0.693-1.024-1.642-2.065-2.943-3.024c-1.51-1.114-3.637-0.793-4.75,0.716
	c-1.114,1.51-0.793,3.638,0.716,4.751c0.45,0.332,0.799,0.674,1.071,1.005l-5.842,3.343c-0.69-1.014-1.633-2.041-2.919-2.99
	c-1.51-1.114-3.637-0.793-4.751,0.717c-1.114,1.51-0.793,3.636,0.717,4.75c0.414,0.305,0.742,0.618,1.004,0.925l-3.236,1.853
	C48.927,61.785,48.712,61.945,48.52,62.125z"/>
<g>
	<path fill="#B7C22C" d="M23.598,40.518l2.276-1.3l5.104,8.936l5.44-3.105l1.119,1.958l-7.717,4.407L23.598,40.518z"/>
	<path fill="#B7C22C" d="M40.073,31.108l3.276-1.871l6.224,10.896l-2.123,1.211l-4.209-7.37c-0.121-0.212-0.288-0.51-0.501-0.895
		c-0.213-0.385-0.379-0.68-0.497-0.887L45.4,42.517l-2.212,1.263l-7.273-7.973c0.118,0.206,0.289,0.5,0.512,0.879
		c0.223,0.379,0.396,0.674,0.516,0.886l4.209,7.371l-2.122,1.211l-6.223-10.896l3.313-1.892l6.876,7.435L40.073,31.108z"/>
	<path fill="#B7C22C" d="M51.116,34.89c0.246,0.429,0.517,0.744,0.814,0.947c0.551,0.37,1.162,0.364,1.838-0.02
		c0.411-0.235,0.692-0.584,0.835-1.043c0.146-0.459,0.067-0.954-0.236-1.487c-0.401-0.704-0.956-1.012-1.662-0.924
		c-0.399,0.053-0.948,0.278-1.646,0.676l-0.861-1.507c0.677-0.4,1.114-0.739,1.314-1.016c0.349-0.473,0.343-1.026-0.018-1.656
		c-0.232-0.409-0.542-0.674-0.926-0.794c-0.387-0.119-0.794-0.056-1.228,0.191c-0.497,0.284-0.772,0.649-0.826,1.098
		c-0.053,0.45,0.077,0.934,0.388,1.456l-1.967,1.123c-0.283-0.543-0.48-1.101-0.592-1.671c-0.067-0.517-0.017-1.059,0.15-1.625
		c0.133-0.409,0.349-0.788,0.652-1.138c0.303-0.35,0.73-0.682,1.282-0.998c1.022-0.584,2-0.79,2.931-0.619s1.648,0.703,2.159,1.595
		c0.36,0.631,0.478,1.271,0.351,1.917c-0.082,0.406-0.224,0.732-0.423,0.977c0.191-0.11,0.562-0.102,1.109,0.022
		c0.822,0.192,1.48,0.719,1.973,1.581c0.518,0.907,0.658,1.884,0.424,2.929c-0.235,1.046-0.969,1.921-2.199,2.624
		c-1.517,0.866-2.853,0.973-4.009,0.319c-0.612-0.35-1.178-0.941-1.699-1.775L51.116,34.89z"/>
	<path fill="#B7C22C" d="M57.122,29.715c-0.007-0.643,0.182-1.237,0.564-1.784c-0.716-0.048-1.267-0.229-1.651-0.541
		c-0.387-0.312-0.68-0.645-0.88-0.994c-0.443-0.779-0.528-1.611-0.254-2.496c0.271-0.884,0.947-1.634,2.018-2.246
		c1.071-0.612,2.058-0.811,2.96-0.597c0.899,0.213,1.575,0.709,2.019,1.487c0.2,0.351,0.338,0.771,0.412,1.261
		c0.073,0.491-0.062,1.031-0.412,1.622c0.7-0.008,1.32,0.158,1.866,0.493c0.545,0.336,0.991,0.802,1.336,1.404
		c0.516,0.902,0.617,1.861,0.312,2.875c-0.306,1.015-1.059,1.864-2.259,2.549c-1.198,0.685-2.287,0.887-3.265,0.606
		c-0.979-0.282-1.726-0.873-2.239-1.775C57.306,30.98,57.128,30.358,57.122,29.715z M60.866,31.185
		c0.439,0.134,0.902,0.063,1.385-0.213s0.776-0.636,0.884-1.083c0.108-0.447,0.012-0.935-0.289-1.463
		c-0.312-0.547-0.689-0.882-1.13-1.006c-0.44-0.125-0.895-0.053-1.369,0.218c-0.472,0.27-0.77,0.627-0.887,1.07
		c-0.116,0.442-0.017,0.937,0.296,1.484C60.055,30.718,60.427,31.049,60.866,31.185z M58.215,26.229
		c0.379,0.108,0.781,0.042,1.206-0.2c0.431-0.246,0.693-0.56,0.787-0.94c0.094-0.38,0.029-0.766-0.191-1.154
		c-0.242-0.424-0.549-0.688-0.921-0.794c-0.37-0.105-0.771-0.034-1.202,0.212c-0.424,0.242-0.688,0.551-0.791,0.926
		c-0.105,0.377-0.034,0.776,0.208,1.2C57.532,25.869,57.833,26.12,58.215,26.229z"/>
	<path fill="#B7C22C" d="M68.336,18.781c-0.099-0.172-0.273-0.324-0.524-0.455c-0.419-0.205-0.857-0.178-1.315,0.084
		c-0.686,0.392-0.952,1.054-0.803,1.989c0.083,0.514,0.332,1.202,0.746,2.062c0.084-0.458,0.257-0.858,0.521-1.198
		s0.617-0.637,1.06-0.89c0.952-0.544,1.917-0.666,2.894-0.368c0.978,0.298,1.753,0.95,2.326,1.955
		c0.572,1.001,0.777,2.054,0.617,3.157c-0.16,1.104-0.868,2.016-2.123,2.733c-1.352,0.771-2.669,0.775-3.955,0.013
		c-1-0.599-1.9-1.594-2.697-2.989c-0.466-0.818-0.811-1.503-1.037-2.055c-0.396-0.981-0.59-1.877-0.581-2.686
		c0.01-0.691,0.172-1.337,0.486-1.935c0.315-0.599,0.819-1.095,1.509-1.488c0.996-0.57,1.935-0.767,2.817-0.595
		c0.882,0.172,1.604,0.662,2.161,1.467L68.336,18.781z M69.287,26.247c0.518,0.188,1.017,0.144,1.495-0.128
		c0.469-0.268,0.735-0.654,0.803-1.159c0.068-0.506-0.06-1.04-0.38-1.602c-0.357-0.626-0.784-1.018-1.28-1.176
		c-0.494-0.159-0.964-0.111-1.408,0.142c-0.36,0.206-0.616,0.496-0.767,0.871c-0.231,0.557-0.143,1.192,0.266,1.906
		C68.344,25.677,68.768,26.06,69.287,26.247z"/>
</g>
</svg>
