<?xml version="1.0" encoding="utf-8"?>
<!-- Generator: Adobe Illustrator 15.0.2, SVG Export Plug-In . SVG Version: 6.00 Build 0)  -->
<!DOCTYPE svg PUBLIC "-//W3C//DTD SVG 1.1//EN" "http://www.w3.org/Graphics/SVG/1.1/DTD/svg11.dtd">
<svg version="1.1" id="Layer_1" xmlns="http://www.w3.org/2000/svg" xmlns:xlink="http://www.w3.org/1999/xlink" x="0px" y="0px"
	 width="172.238px" height="180.994px" viewBox="0 0 172.238 180.994" enable-background="new 0 0 172.238 180.994"
	 xml:space="preserve">
<path fill="#B7C22C" d="M152.336,57.604l-16.438-3.057c-0.4-0.075-0.838-0.451-0.974-0.837l-5.039-11.756
	c-0.188-0.363-0.151-0.933,0.08-1.271l9.578-13.96c0.229-0.336,0.185-0.847-0.104-1.136l-11.963-11.963
	c-0.289-0.289-0.8-0.336-1.136-0.105l-14.204,9.748c-0.337,0.231-0.912,0.272-1.277,0.092l-11.396-4.665
	c-0.387-0.128-0.764-0.561-0.84-0.962L95.457,0.729C95.383,0.329,94.988,0,94.58,0H77.66c-0.407,0-0.802,0.328-0.876,0.729
	L73.62,17.732c-0.076,0.401-0.452,0.834-0.84,0.962l-11.397,4.665c-0.365,0.18-0.941,0.139-1.276-0.092L45.901,13.52
	c-0.337-0.231-0.848-0.184-1.136,0.105L32.802,25.587c-0.288,0.289-0.337,0.8-0.105,1.136l9.579,13.96
	c0.229,0.338,0.266,0.908,0.079,1.271l-5.04,11.756c-0.134,0.386-0.571,0.762-0.974,0.837l-16.438,3.057
	c-0.402,0.076-0.729,0.47-0.729,0.878l0.001,16.919c0,0.408,0.328,0.805,0.729,0.878l16.035,2.984c0.4,0.073,0.83,0.454,0.952,0.843
	l5.006,12.504c0.179,0.367,0.137,0.941-0.095,1.277l-9.108,13.273c-0.23,0.336-0.183,0.848,0.104,1.137l11.966,11.963
	c0.288,0.287,0.799,0.334,1.136,0.105l13.038-8.949c0.336-0.23,0.898-0.248,1.25-0.043l5.75,3.07
	c0.364,0.186,0.789,0.029,0.944-0.348L78.74,85.449c0.157-0.377,0-0.858-0.348-1.071l-1.439-0.881
	c-0.266-0.162-0.627-0.441-0.91-0.697c-5.19-3.324-8.635-9.139-8.635-15.761c0-10.334,8.378-18.711,18.711-18.711
	s18.71,8.377,18.71,18.711c0,6.622-3.442,12.437-8.635,15.761c-0.281,0.256-0.644,0.535-0.908,0.697l-1.438,0.881
	c-0.347,0.213-0.505,0.694-0.349,1.071l11.855,28.647c0.155,0.377,0.58,0.533,0.944,0.348l5.75-3.069
	c0.353-0.205,0.914-0.188,1.25,0.043l13.039,8.949c0.336,0.229,0.849,0.182,1.136-0.104l11.965-11.964
	c0.289-0.289,0.336-0.801,0.104-1.137l-9.108-13.272c-0.23-0.337-0.273-0.91-0.095-1.277l5.007-12.505
	c0.123-0.389,0.549-0.77,0.95-0.843l16.035-2.984c0.4-0.073,0.729-0.47,0.729-0.878l0.002-16.919
	C153.064,58.074,152.736,57.681,152.336,57.604"/>
<path fill="#B7C22C" d="M45.597,180.781h3.612v-12.255c0-4.426-3.046-5.914-7.473-5.914c-2.692,0-4.675,0.707-6.056,2.621
	l2.833,2.16c0.637-1.026,1.522-1.383,3.399-1.383c2.585,0,3.684,0.604,3.684,2.303v1.877h-4.994c-3.86,0-5.843,2.445-5.843,5.312
	c0,3.117,2.337,5.49,6.339,5.49c2.443,0,3.684-0.566,4.427-1.807h0.071V180.781z M45.597,174.478c0,2.799-1.027,3.117-4.037,3.117
	c-2.444,0-3.401-1.062-3.401-2.267c0-1.312,0.992-2.162,3.118-2.162h4.32V174.478z"/>
<path fill="#B7C22C" d="M53.178,180.781h3.611v-10.804c0-2.619,1.736-3.754,3.507-3.754c0.921,0,1.523,0.248,2.373,0.887l2.62-3.116
	c-1.098-0.851-2.301-1.382-3.754-1.382c-1.912,0-3.542,0.709-4.675,2.125H56.79v-1.911h-3.611V180.781z"/>
<path fill="#B7C22C" d="M76.095,180.781h3.611v-25.218h-3.611v9.174c-1.347-1.274-2.799-2.125-4.641-2.125
	c-2.196,0-3.789,0.99-4.815,2.339c-0.992,1.272-1.275,2.44-1.275,6.836c0,4.426,0.283,5.594,1.275,6.869
	c1.026,1.346,2.619,2.338,4.815,2.338c1.842,0,3.507-0.853,4.641-2.091V180.781z M72.553,166.226c3.364,0,3.542,2.977,3.542,5.562
	c0,2.621-0.178,5.594-3.542,5.594c-3.4,0-3.577-2.797-3.577-5.594C68.976,169.022,69.153,166.226,72.553,166.226"/>
<polygon fill="#B7C22C" points="98.143,180.781 101.332,180.781 107.068,162.826 103.242,162.826 99.809,175.397 99.736,175.397 
	95.664,162.826 93.043,162.826 88.971,175.397 88.9,175.397 85.464,162.826 81.64,162.826 87.377,180.781 90.564,180.781 
	94.318,168.209 94.389,168.209 "/>
<path fill="#B7C22C" d="M118.186,180.781h3.612v-12.255c0-4.426-3.047-5.914-7.473-5.914c-2.691,0-4.676,0.707-6.057,2.621
	l2.834,2.16c0.637-1.026,1.521-1.383,3.397-1.383c2.586,0,3.685,0.604,3.685,2.303v1.877h-4.994c-3.859,0-5.844,2.445-5.844,5.312
	c0,3.117,2.338,5.49,6.34,5.49c2.442,0,3.684-0.566,4.428-1.807h0.07L118.186,180.781L118.186,180.781z M118.186,174.478
	c0,2.799-1.027,3.117-4.037,3.117c-2.443,0-3.4-1.062-3.4-2.267c0-1.312,0.992-2.162,3.117-2.162h4.32V174.478L118.186,174.478z"/>
<path fill="#B7C22C" d="M125.768,180.781h3.61v-10.804c0-2.619,1.734-3.754,3.506-3.754c0.923,0,1.523,0.248,2.373,0.887
	l2.621-3.116c-1.098-0.851-2.303-1.382-3.754-1.382c-1.912,0-3.541,0.709-4.674,2.125h-0.072v-1.911h-3.61V180.781z"/>
<path fill="#B7C22C" d="M152.748,173.168v-2.978c0-4.639-3.434-7.578-7.399-7.578c-3.472,0-7.402,2.267-7.402,9.242
	c0,7.367,4.285,9.14,7.969,9.14c2.408,0,4.709-0.851,6.48-2.904l-2.621-2.231c-1.062,1.1-2.551,1.735-3.93,1.735
	c-2.48,0-4.285-1.487-4.285-4.426H152.748L152.748,173.168z M141.559,170.19c0.069-2.727,1.664-4.18,3.789-4.18
	s3.684,1.453,3.789,4.18H141.559z"/>
<path fill="#B7C22C" d="M0,143.426c0,3.896,0.566,5.384,1.947,6.906c0.992,1.099,2.657,2.301,5.455,2.301
	c2.797,0,4.462-1.202,5.454-2.301c1.381-1.522,1.948-3.013,1.948-6.906c0-3.86-0.567-5.348-1.948-6.87
	c-0.992-1.099-2.657-2.304-5.454-2.304c-2.798,0-4.463,1.205-5.455,2.304C0.566,138.078,0,139.563,0,143.426 M11.191,143.461
	c0,2.586-0.212,3.293-0.885,4.25c-0.532,0.744-1.665,1.312-2.904,1.312c-1.24,0-2.373-0.566-2.904-1.312
	c-0.673-0.957-0.886-1.664-0.886-4.285c0-2.586,0.213-3.295,0.886-4.25c0.531-0.743,1.664-1.311,2.904-1.311
	c1.239,0,2.372,0.565,2.904,1.311C10.979,140.131,11.191,140.84,11.191,143.461"/>
<path fill="#B7C22C" d="M49.469,144.808v-2.976c0-4.642-3.436-7.58-7.401-7.58c-3.472,0-7.402,2.269-7.402,9.244
	c0,7.364,4.285,9.137,7.968,9.137c2.409,0,4.711-0.85,6.481-2.903l-2.621-2.23c-1.062,1.098-2.549,1.736-3.93,1.736
	c-2.48,0-4.286-1.488-4.286-4.428H49.469L49.469,144.808z M38.278,141.832c0.071-2.729,1.665-4.181,3.79-4.181
	s3.683,1.451,3.789,4.181H38.278z"/>
<path fill="#B7C22C" d="M52.552,152.42h3.611v-10.692c0-2.445,1.523-3.861,3.577-3.861c2.019,0,3.542,1.416,3.542,3.861v10.692
	h3.612v-11.935c0-4.073-3.188-6.233-5.985-6.233c-1.912,0-3.542,0.709-4.674,2.125h-0.072v-1.912h-3.611V152.42z"/>
<path fill="#B7C22C" d="M76.662,149.41c2.302,2.159,4.994,3.223,7.898,3.223c4.179,0,7.437-2.018,7.437-5.524
	c0-2.867-1.485-5.135-5.206-5.383l-2.975-0.211c-1.806-0.144-2.372-0.923-2.372-1.701c0-1.238,0.779-2.16,3.08-2.16
	c1.949,0,3.401,0.674,4.817,1.664l2.23-2.619c-1.771-1.488-3.895-2.445-7.049-2.445c-3.789,0-6.693,1.877-6.693,5.525
	c0,3.08,2.196,4.852,5.17,5.1l3.188,0.283c1.241,0.105,2.195,0.496,2.195,1.771c0,1.522-1.488,2.301-3.542,2.301
	c-2.407,0-4.107-0.777-5.666-2.301L76.662,149.41z"/>
<path fill="#B7C22C" d="M94.051,143.426c0,3.896,0.568,5.384,1.949,6.906c0.992,1.099,2.656,2.301,5.453,2.301
	c2.799,0,4.463-1.202,5.455-2.301c1.381-1.522,1.947-3.013,1.947-6.906c0-3.86-0.566-5.348-1.947-6.87
	c-0.992-1.099-2.656-2.304-5.455-2.304c-2.797,0-4.461,1.205-5.453,2.304C94.619,138.078,94.051,139.563,94.051,143.426
	 M105.242,143.461c0,2.586-0.211,3.293-0.885,4.25c-0.531,0.744-1.664,1.312-2.904,1.312c-1.238,0-2.373-0.566-2.902-1.312
	c-0.674-0.957-0.887-1.664-0.887-4.285c0-2.586,0.213-3.295,0.887-4.25c0.529-0.743,1.664-1.311,2.902-1.311
	c1.24,0,2.373,0.565,2.904,1.311C105.031,140.131,105.242,140.84,105.242,143.461"/>
<path fill="#B7C22C" d="M111.939,146.399c0,4.072,3.188,6.232,6.021,6.232c1.875,0,3.506-0.709,4.64-2.125h0.069v1.914h3.611
	v-17.957h-3.611v10.695c0,2.443-1.522,3.861-3.543,3.861c-2.053,0-3.576-1.418-3.576-3.861v-10.695h-3.61V146.399L111.939,146.399z"
	/>
<path fill="#B7C22C" d="M130.242,152.42h3.613v-10.801c0-2.621,1.733-3.754,3.506-3.754c0.922,0,1.522,0.247,2.373,0.885
	l2.621-3.117c-1.101-0.85-2.301-1.381-3.754-1.381c-1.912,0-3.543,0.709-4.677,2.125h-0.069v-1.912h-3.613V152.42z"/>
<path fill="#B7C22C" d="M153.859,147.146c-0.885,1.098-2.16,1.877-3.646,1.877c-2.938,0-4.676-1.666-4.676-5.562
	c0-3.93,1.736-5.594,4.676-5.594c1.486,0,2.763,0.779,3.646,1.877l2.656-2.373c-1.558-1.807-3.72-3.117-6.445-3.117
	c-4.144,0-8.146,2.621-8.146,9.207c0,6.555,4.002,9.174,8.146,9.174c2.727,0,4.889-1.311,6.445-3.115L153.859,147.146z"/>
<path fill="#B7C22C" d="M172.238,144.808v-2.976c0-4.642-3.438-7.58-7.402-7.58c-3.473,0-7.401,2.269-7.401,9.244
	c0,7.364,4.285,9.137,7.969,9.137c2.408,0,4.711-0.85,6.479-2.903l-2.62-2.23c-1.062,1.098-2.55,1.736-3.931,1.736
	c-2.479,0-4.285-1.488-4.285-4.428H172.238L172.238,144.808z M161.047,141.832c0.07-2.729,1.664-4.181,3.789-4.181
	s3.683,1.451,3.789,4.181H161.047z"/>
<path fill="#B7C22C" d="M25.041,149.021c3.4,0,3.577-2.799,3.577-5.561c0-2.799-0.177-5.596-3.577-5.596
	c-3.363,0-3.542,2.975-3.542,5.596C21.499,146.047,21.676,149.021,25.041,149.021 M17.873,180.781v-46.316h3.626v1.877
	c1.134-1.239,2.798-2.09,4.641-2.09c2.194,0,3.79,0.992,4.816,2.338c0.991,1.275,1.274,2.443,1.274,6.871
	c0,4.392-0.283,5.562-1.274,6.834c-1.026,1.347-2.622,2.338-4.816,2.338c-1.843,0-3.294-0.85-4.641-2.125l-0.013,14.229
	c1.204-1.416,2.833-2.125,4.745-2.125c2.798,0,5.984,2.16,5.984,6.232v11.936h-3.611v-10.694c0-2.444-1.523-3.86-3.542-3.86
	c-2.055,0-3.576,1.416-3.576,3.86v10.695H17.873z"/>
</svg>
