<?xml version="1.0" encoding="utf-8"?>
<!-- Generator: Adobe Illustrator 15.0.2, SVG Export Plug-In . SVG Version: 6.00 Build 0)  -->
<!DOCTYPE svg PUBLIC "-//W3C//DTD SVG 1.1//EN" "http://www.w3.org/Graphics/SVG/1.1/DTD/svg11.dtd">
<svg version="1.1" id="Capa_17" xmlns="http://www.w3.org/2000/svg" xmlns:xlink="http://www.w3.org/1999/xlink" x="0px" y="0px"
	 width="95.9px" height="100px" viewBox="0 0 95.9 100" enable-background="new 0 0 95.9 100" xml:space="preserve">
<path fill="#22A8B5" d="M12.613,18.261l-0.928,0.927l-4.574-4.574l-2.712-1.605l1.6,2.717l4.575,4.574l-0.922,0.923L28.577,40.15
	l2.961-2.961L12.613,18.261z M77.755,80.296c-3.713-0.129-7.121-2.672-9.112-4.594l0.724-0.724c0.149-0.151,0.149-0.391,0-0.541
	L49.155,52.334l0.138-0.138c0.286-0.286,0.287-0.744,0.001-1.03L38.75,39.204l0.079-0.077c0.415-0.415,0.469-1.034,0.122-1.381
	l-1.616-1.616c-0.35-0.349-0.966-0.293-1.38,0.122l-0.044,0.044l-0.544-0.544c-0.348-0.348-0.908-0.348-1.255-0.001l-6.972,6.972
	c-0.349,0.347-0.347,0.909,0,1.256l0.544,0.543l-0.044,0.045c-0.414,0.413-0.468,1.028-0.12,1.377l1.616,1.615
	c0.347,0.347,0.964,0.295,1.377-0.118l0.08-0.079l11.962,10.543c0.285,0.284,0.745,0.284,1.029-0.001l0.139-0.138l22.104,20.21
	c0.15,0.15,0.392,0.15,0.54,0l0.825-0.824c2.163,2.074,5.873,4.98,10.48,5.195c5.14,0.174,7.776-1.159,10.81,1.908
	c0.587,0.582,1.201,1.342,1.848,2.326l1.713-1.128c-0.712-1.073-1.404-1.945-2.108-2.649C85.977,78.887,82.152,80.528,77.755,80.296
	z"/>
</svg>
