<?xml version="1.0" encoding="utf-8"?>
<!-- Generator: Adobe Illustrator 15.0.2, SVG Export Plug-In . SVG Version: 6.00 Build 0)  -->
<!DOCTYPE svg PUBLIC "-//W3C//DTD SVG 1.1//EN" "http://www.w3.org/Graphics/SVG/1.1/DTD/svg11.dtd">
<svg version="1.1" id="Layer_1" xmlns="http://www.w3.org/2000/svg" xmlns:xlink="http://www.w3.org/1999/xlink" x="0px" y="0px"
	 width="82.025px" height="100px" viewBox="0 0 82.025 100" enable-background="new 0 0 82.025 100" xml:space="preserve">
<g>
	<path fill="#2A3F42" d="M36.401,60.631l-2.736-3.597l16.672-12.673l1.998,2.629l3.796-4.713c2.815-3.546,7.998-6.675,12.49-7.902
		c7.708-2.37,13.404-9.596,13.404-18.174c0-6.912-3.946-13.454-9.128-16.2l-0.026,15.23l-9.749,7.752l-9.542-7.51V0
		c-3.896,1.985-10.616,8.479-8.855,17.559c0.182,2.68,2.254,9.565,1.371,13.319c-1.062,4.465-1.538,5.052-6.676,11.482l3.924,5.162
		l-4.761,3.619l-3.022-3.977L1.64,88.975c-2.395,2.736-2.14,6.938,0.568,9.364c2.709,2.429,6.834,2.161,9.237-0.578L41.173,60.85
		C39.626,59.775,37.727,59.624,36.401,60.631z"/>
	<path fill="#2A3F42" d="M39.42,42.36L18.754,15.176l-1.939-6.089L7.257,0.05L2.496,3.669l6.149,11.626l5.349,3.5L35.56,47.164
		l1.785-2.2C38.116,43.992,38.796,43.142,39.42,42.36z"/>
	<path fill="#2A3F42" d="M58.966,55.701c-1.744,1.324-4.477,0.663-6.102-1.477c-1.623-2.135-1.528-4.943,0.207-6.266l-0.736-0.969
		L41.174,60.85c0.483,0.334,0.935,0.752,1.32,1.26c1.625,2.141,1.534,4.947-0.205,6.271l21.739,28.592
		c3.639,3.646,9.596,4.078,13.813,0.869c4.22-3.208,5.388-9.059,2.858-13.544L58.966,55.701z M67.788,94.021
		c-0.374,0.289-0.914,0.213-1.198-0.158L47.368,68.579c-0.287-0.38-0.211-0.913,0.164-1.2c0.38-0.285,0.916-0.214,1.201,0.161
		l19.22,25.283C68.24,93.2,68.164,93.736,67.788,94.021z M72.315,90.581c-0.376,0.287-0.914,0.211-1.197-0.162L51.899,65.136
		c-0.285-0.378-0.213-0.911,0.165-1.198c0.377-0.289,0.914-0.213,1.194,0.16l19.224,25.284
		C72.766,89.759,72.695,90.292,72.315,90.581z M76.848,87.137c-0.375,0.286-0.916,0.211-1.199-0.158L56.43,61.691
		c-0.287-0.379-0.215-0.916,0.162-1.2c0.371-0.282,0.91-0.214,1.199,0.166l19.22,25.28C77.298,86.314,77.222,86.854,76.848,87.137z"
		/>
</g>
</svg>
