<svg xmlns="http://www.w3.org/2000/svg" xmlns:xlink="http://www.w3.org/1999/xlink" version="1.1" x="0px" y="0px" width="100px" height="100px" viewBox="0 0 100 100" enable-background="new 0 0 100 100" xml:space="preserve">
<g id="Captions">
</g>
<g id="Your_Icon">
	<path fill="#2A3F42" id="ant-r" fill-rule="evenodd" clip-rule="evenodd" d="M83.51,51.599h-7.533l6.708-33.534c0.4-2,2.346-3.296,4.347-2.897   c2,0.401,3.297,2.346,2.896,4.346L83.51,51.599L83.51,51.599z"/>
	<path fill="#2A3F42" id="ant-l" fill-rule="evenodd" clip-rule="evenodd" d="M16.551,51.599l-6.28-31.918c-0.395-2.011,0.888-3.968,2.866-4.37   c1.977-0.401,3.902,0.903,4.298,2.915L24,51.599H16.551L16.551,51.599z"/>
	<path fill="#2A3F42" id="base" fill-rule="evenodd" clip-rule="evenodd" d="M88.312,54h-7.533H23.341h-7.449H4.83H0v26h9.712l3.333,6h14.262   l3.332-6h42.141l3.333,6h14.262l3.333-6H100V54H88.312z M73.864,73.188c-1.883,0-3.409-1.524-3.409-3.408   c0-1.883,1.526-3.408,3.409-3.408c1.882,0,3.408,1.525,3.408,3.408C77.272,71.663,75.746,73.188,73.864,73.188z M86.932,73.188   c-1.883,0-3.408-1.524-3.408-3.408c0-1.883,1.525-3.408,3.408-3.408s3.409,1.525,3.409,3.408   C90.341,71.663,88.814,73.188,86.932,73.188z"/>
</g>
</svg>
